ffmpeg version git-2026-04-19-de18feb Copyright (c) 2000-2026 the FFmpeg developers
  built with gcc 9 (Ubuntu 9.4.0-1ubuntu1~20.04.2)
  configuration: --enable-shared --enable-gpl --enable-libx264
  libavutil      60. 30.100 / 60. 30.100
  libavcodec     62. 30.100 / 62. 30.100
  libavformat    62. 13.102 / 62. 13.102
  libavdevice    62.  4.100 / 62.  4.100
  libavfilter    11. 15.101 / 11. 15.101
  libswscale      9.  7.100 /  9.  7.100
  libswresample   6.  4.100 /  6.  4.100
[in#0/x11grab @ 0x561298d35c40] Stream #0: not enough frames to estimate rate; consider increasing probesize
Input #0, x11grab, from ':0.0+0,0':
  Duration: N/A, start: 1777383433.446067, bitrate: 3678192 kb/s
  Stream #0:0: Video: rawvideo (BGR[0] / 0x524742), bgr0, 2870x1602, 3678192 kb/s, 25 fps, 1000k tbr, 1000k tbn, start 1777383433.446067
Stream mapping:
  Stream #0:0 -> #0:0 (rawvideo (native) -> h264 (libx264))
[libx264 @ 0x561298d43f00] using cpu capabilities: MMX2 SSE2Fast SSSE3 SSE4.2 AVX FMA3 BMI2 AVX2
[libx264 @ 0x561298d43f00] profile High, level 5.0
[libx264 @ 0x561298d43f00] 264 - core 155 r2917 0a84d98 - H.264/MPEG-4 AVC codec - Copyleft 2003-2018 - http://www.videolan.org/x264.html - options: cabac=1 ref=1 deblock=1:0:0 analyse=0x3:0x113 me=hex subme=2 psy=1 psy_rd=1.00:0.00 mixed_ref=0 me_range=16 chroma_me=1 trellis=0 8x8dct=1 cqm=0 deadzone=21,11 fast_pskip=1 chroma_qp_offset=0 threads=6 lookahead_threads=2 sliced_threads=0 nr=0 decimate=1 interlaced=0 bluray_compat=0 constrained_intra=0 bframes=3 b_pyramid=2 b_adapt=1 b_bias=0 direct=1 weightb=1 open_gop=0 weightp=1 keyint=250 keyint_min=25 scenecut=40 intra_refresh=0 rc_lookahead=10 rc=crf mbtree=1 crf=23.0 qcomp=0.60 qpmin=0 qpmax=69 qpstep=4 ip_ratio=1.40 aq=1:1.00
Output #0, matroska, to '/home/lmy/catkin_ws/recordings_tmp/exp_10_point_v2/screen.mkv':
  Metadata:
    encoder         : Lavf62.13.102
  Stream #0:0: Video: h264 (H264 / 0x34363248), yuv420p(tv, progressive), 2870x1602, q=2-31, 25 fps, 1k tbn
    Metadata:
      encoder         : Lavc62.30.100 libx264
    Side data:
      CPB properties: bitrate max/min/avg: 0/0/0 buffer size: 0 vbv_delay: N/A
frame=    0 fps=0.0 q=0.0 size=       0KiB time=N/A bitrate=N/A speed=N/A elapsed=0:00:00.50    frame=    0 fps=0.0 q=0.0 size=       0KiB time=N/A bitrate=N/A dup=0 drop=3 speed=N/A elapsed=0:00:01.00    frame=    0 fps=0.0 q=0.0 size=       0KiB time=N/A bitrate=N/A dup=0 drop=3 speed=N/A elapsed=0:00:01.51    frame=    6 fps=3.0 q=28.0 size=       1KiB time=00:00:00.32 bitrate=  14.8kbits/s dup=0 drop=3 speed=0.159x elapsed=0:00:02.01    frame=   15 fps=6.0 q=28.0 size=       1KiB time=00:00:00.64 bitrate=   7.4kbits/s dup=0 drop=3 speed=0.255x elapsed=0:00:02.51    frame=   38 fps= 13 q=28.0 size=       1KiB time=00:00:01.80 bitrate=   2.6kbits/s dup=0 drop=14 speed=0.597x elapsed=0:00:03.01    frame=   54 fps= 15 q=28.0 size=       1KiB time=00:00:02.72 bitrate=   1.7kbits/s dup=0 drop=15 speed=0.774x elapsed=0:00:03.51    frame=   67 fps= 17 q=28.0 size=       1KiB time=00:00:03.20 bitrate=   1.5kbits/s dup=0 drop=15 speed=0.797x elapsed=0:00:04.01    frame=   79 fps= 17 q=28.0 size=       1KiB time=00:00:03.68 bitrate=   1.3kbits/s dup=0 drop=15 speed=0.815x elapsed=0:00:04.51    frame=   92 fps= 18 q=28.0 size=       1KiB time=00:00:04.24 bitrate=   1.1kbits/s dup=0 drop=15 speed=0.845x elapsed=0:00:05.01    frame=  104 fps= 19 q=28.0 size=       1KiB time=00:00:04.68 bitrate=   1.0kbits/s dup=0 drop=15 speed=0.848x elapsed=0:00:05.51    frame=  117 fps= 19 q=28.0 size=     184KiB time=00:00:05.20 bitrate= 289.1kbits/s dup=0 drop=15 speed=0.864x elapsed=0:00:06.01    frame=  129 fps= 20 q=28.0 size=     184KiB time=00:00:05.68 bitrate= 264.7kbits/s dup=0 drop=15 speed=0.872x elapsed=0:00:06.51    frame=  142 fps= 20 q=28.0 size=     184KiB time=00:00:06.20 bitrate= 242.5kbits/s dup=0 drop=15 speed=0.884x elapsed=0:00:07.01    frame=  155 fps= 21 q=28.0 size=     184KiB time=00:00:06.72 bitrate= 223.7kbits/s dup=0 drop=15 speed=0.894x elapsed=0:00:07.51    frame=  167 fps= 21 q=28.0 size=     184KiB time=00:00:07.24 bitrate= 207.6kbits/s dup=0 drop=15 speed=0.903x elapsed=0:00:08.01    frame=  179 fps= 21 q=28.0 size=     184KiB time=00:00:07.76 bitrate= 193.7kbits/s dup=0 drop=15 speed=0.911x elapsed=0:00:08.51    frame=  192 fps= 21 q=28.0 size=     184KiB time=00:00:08.20 bitrate= 183.3kbits/s dup=0 drop=15 speed=0.909x elapsed=0:00:09.01    frame=  204 fps= 21 q=28.0 size=     184KiB time=00:00:08.68 bitrate= 173.2kbits/s dup=0 drop=15 speed=0.912x elapsed=0:00:09.51    frame=  217 fps= 22 q=28.0 size=     184KiB time=00:00:09.20 bitrate= 163.4kbits/s dup=0 drop=15 speed=0.918x elapsed=0:00:10.01    frame=  230 fps= 22 q=28.0 size=     184KiB time=00:00:09.76 bitrate= 154.0kbits/s dup=0 drop=15 speed=0.928x elapsed=0:00:10.52    frame=  242 fps= 22 q=28.0 size=     256KiB time=00:00:10.20 bitrate= 205.6kbits/s dup=0 drop=15 speed=0.926x elapsed=0:00:11.02    frame=  254 fps= 22 q=28.0 size=     256KiB time=00:00:10.72 bitrate= 195.6kbits/s dup=0 drop=15 speed=0.93x elapsed=0:00:11.52    frame=  267 fps= 22 q=28.0 size=     256KiB time=00:00:11.20 bitrate= 187.2kbits/s dup=0 drop=15 speed=0.932x elapsed=0:00:12.02    frame=  279 fps= 22 q=28.0 size=     256KiB time=00:00:11.68 bitrate= 179.6kbits/s dup=0 drop=15 speed=0.933x elapsed=0:00:12.52    frame=  292 fps= 22 q=28.0 size=     256KiB time=00:00:12.20 bitrate= 171.9kbits/s dup=0 drop=15 speed=0.937x elapsed=0:00:13.02    frame=  305 fps= 23 q=28.0 size=     256KiB time=00:00:12.76 bitrate= 164.4kbits/s dup=0 drop=15 speed=0.943x elapsed=0:00:13.52    frame=  317 fps= 23 q=28.0 size=     256KiB time=00:00:13.20 bitrate= 158.9kbits/s dup=0 drop=15 speed=0.941x elapsed=0:00:14.02    frame=  330 fps= 23 q=28.0 size=     256KiB time=00:00:13.76 bitrate= 152.4kbits/s dup=0 drop=15 speed=0.947x elapsed=0:00:14.52    frame=  342 fps= 23 q=28.0 size=     256KiB time=00:00:14.24 bitrate= 147.3kbits/s dup=0 drop=15 speed=0.948x elapsed=0:00:15.02    frame=  354 fps= 23 q=28.0 size=     256KiB time=00:00:14.68 bitrate= 142.9kbits/s dup=0 drop=15 speed=0.945x elapsed=0:00:15.52    frame=  367 fps= 23 q=28.0 size=     256KiB time=00:00:15.20 bitrate= 138.0kbits/s dup=0 drop=15 speed=0.948x elapsed=0:00:16.03    frame=  380 fps= 23 q=28.0 size=     256KiB time=00:00:15.76 bitrate= 133.1kbits/s dup=0 drop=15 speed=0.953x elapsed=0:00:16.53    frame=  392 fps= 23 q=28.0 size=     256KiB time=00:00:16.24 bitrate= 129.1kbits/s dup=0 drop=15 speed=0.953x elapsed=0:00:17.03    frame=  405 fps= 23 q=28.0 size=     256KiB time=00:00:16.76 bitrate= 125.1kbits/s dup=0 drop=15 speed=0.956x elapsed=0:00:17.53    frame=  417 fps= 23 q=28.0 size=     256KiB time=00:00:17.24 bitrate= 121.6kbits/s dup=0 drop=15 speed=0.956x elapsed=0:00:18.03    frame=  430 fps= 23 q=28.0 size=     256KiB time=00:00:17.76 bitrate= 118.1kbits/s dup=0 drop=15 speed=0.958x elapsed=0:00:18.53    frame=  442 fps= 23 q=28.0 size=     256KiB time=00:00:18.24 bitrate= 115.0kbits/s dup=0 drop=15 speed=0.958x elapsed=0:00:19.03    frame=  455 fps= 23 q=28.0 size=     256KiB time=00:00:18.72 bitrate= 112.0kbits/s dup=0 drop=15 speed=0.958x elapsed=0:00:19.54    frame=  468 fps= 23 q=28.0 size=     256KiB time=00:00:19.28 bitrate= 108.8kbits/s dup=0 drop=15 speed=0.962x elapsed=0:00:20.04    frame=  480 fps= 23 q=28.0 size=     256KiB time=00:00:19.72 bitrate= 106.3kbits/s dup=0 drop=15 speed=0.96x elapsed=0:00:20.54    frame=  492 fps= 23 q=28.0 size=     256KiB time=00:00:20.20 bitrate= 103.8kbits/s dup=0 drop=15 speed=0.96x elapsed=0:00:21.04    frame=  505 fps= 23 q=28.0 size=     512KiB time=00:00:20.72 bitrate= 202.4kbits/s dup=0 drop=15 speed=0.962x elapsed=0:00:21.54    frame=  517 fps= 23 q=28.0 size=     512KiB time=00:00:21.20 bitrate= 197.8kbits/s dup=0 drop=15 speed=0.962x elapsed=0:00:22.04    frame=  530 fps= 24 q=28.0 size=     512KiB time=00:00:21.72 bitrate= 193.1kbits/s dup=0 drop=15 speed=0.963x elapsed=0:00:22.54    frame=  543 fps= 24 q=28.0 size=     512KiB time=00:00:22.28 bitrate= 188.3kbits/s dup=0 drop=15 speed=0.967x elapsed=0:00:23.04    frame=  555 fps= 24 q=28.0 size=     512KiB time=00:00:22.76 bitrate= 184.3kbits/s dup=0 drop=15 speed=0.967x elapsed=0:00:23.54    frame=  568 fps= 24 q=28.0 size=     512KiB time=00:00:23.28 bitrate= 180.2kbits/s dup=0 drop=15 speed=0.968x elapsed=0:00:24.04    frame=  580 fps= 24 q=28.0 size=     512KiB time=00:00:23.72 bitrate= 176.8kbits/s dup=0 drop=15 speed=0.966x elapsed=0:00:24.54    frame=  593 fps= 24 q=28.0 size=     512KiB time=00:00:24.24 bitrate= 173.0kbits/s dup=0 drop=15 speed=0.968x elapsed=0:00:25.04    frame=  605 fps= 24 q=28.0 size=     512KiB time=00:00:24.72 bitrate= 169.7kbits/s dup=0 drop=15 speed=0.968x elapsed=0:00:25.54    frame=  617 fps= 24 q=28.0 size=     512KiB time=00:00:25.20 bitrate= 166.4kbits/s dup=0 drop=15 speed=0.968x elapsed=0:00:26.04    frame=  630 fps= 24 q=28.0 size=     768KiB time=00:00:25.76 bitrate= 244.2kbits/s dup=0 drop=15 speed=0.97x elapsed=0:00:26.54    frame=  643 fps= 24 q=28.0 size=     768KiB time=00:00:26.24 bitrate= 239.8kbits/s dup=0 drop=15 speed=0.97x elapsed=0:00:27.04    frame=  655 fps= 24 q=28.0 size=     768KiB time=00:00:26.76 bitrate= 235.1kbits/s dup=0 drop=15 speed=0.971x elapsed=0:00:27.54    frame=  668 fps= 24 q=28.0 size=     768KiB time=00:00:27.24 bitrate= 231.0kbits/s dup=0 drop=15 speed=0.971x elapsed=0:00:28.04    frame=  680 fps= 24 q=28.0 size=     768KiB time=00:00:27.72 bitrate= 227.0kbits/s dup=0 drop=15 speed=0.971x elapsed=0:00:28.54    frame=  693 fps= 24 q=28.0 size=     768KiB time=00:00:28.28 bitrate= 222.5kbits/s dup=0 drop=15 speed=0.974x elapsed=0:00:29.04    frame=  705 fps= 24 q=28.0 size=     768KiB time=00:00:28.72 bitrate= 219.1kbits/s dup=0 drop=15 speed=0.972x elapsed=0:00:29.54    frame=  718 fps= 24 q=28.0 size=     768KiB time=00:00:29.28 bitrate= 214.9kbits/s dup=0 drop=15 speed=0.974x elapsed=0:00:30.05    frame=  730 fps= 24 q=28.0 size=     768KiB time=00:00:29.76 bitrate= 211.4kbits/s dup=0 drop=15 speed=0.974x elapsed=0:00:30.55    frame=  743 fps= 24 q=28.0 size=     768KiB time=00:00:30.28 bitrate= 207.8kbits/s dup=0 drop=15 speed=0.975x elapsed=0:00:31.05    frame=  755 fps= 24 q=28.0 size=     768KiB time=00:00:30.76 bitrate= 204.5kbits/s dup=0 drop=15 speed=0.975x elapsed=0:00:31.55    frame=  768 fps= 24 q=28.0 size=     768KiB time=00:00:31.28 bitrate= 201.1kbits/s dup=0 drop=15 speed=0.976x elapsed=0:00:32.05    frame=  780 fps= 24 q=28.0 size=     768KiB time=00:00:31.72 bitrate= 198.3kbits/s dup=0 drop=15 speed=0.974x elapsed=0:00:32.55    frame=  793 fps= 24 q=28.0 size=     768KiB time=00:00:32.28 bitrate= 194.9kbits/s dup=0 drop=15 speed=0.977x elapsed=0:00:33.05    frame=  805 fps= 24 q=28.0 size=     768KiB time=00:00:32.76 bitrate= 192.0kbits/s dup=0 drop=15 speed=0.976x elapsed=0:00:33.55    frame=  818 fps= 24 q=28.0 size=     768KiB time=00:00:33.24 bitrate= 189.3kbits/s dup=0 drop=15 speed=0.976x elapsed=0:00:34.05    frame=  830 fps= 24 q=28.0 size=     768KiB time=00:00:33.72 bitrate= 186.6kbits/s dup=0 drop=15 speed=0.976x elapsed=0:00:34.55    frame=  843 fps= 24 q=28.0 size=     768KiB time=00:00:34.24 bitrate= 183.7kbits/s dup=0 drop=15 speed=0.977x elapsed=0:00:35.05    frame=  855 fps= 24 q=28.0 size=     768KiB time=00:00:34.76 bitrate= 181.0kbits/s dup=0 drop=15 speed=0.978x elapsed=0:00:35.55    frame=  868 fps= 24 q=28.0 size=     768KiB time=00:00:35.24 bitrate= 178.5kbits/s dup=0 drop=15 speed=0.977x elapsed=0:00:36.05    frame=  880 fps= 24 q=28.0 size=    1024KiB time=00:00:35.72 bitrate= 234.8kbits/s dup=0 drop=15 speed=0.977x elapsed=0:00:36.55    frame=  893 fps= 24 q=28.0 size=    1024KiB time=00:00:36.24 bitrate= 231.5kbits/s dup=0 drop=15 speed=0.978x elapsed=0:00:37.05    frame=  905 fps= 24 q=28.0 size=    1024KiB time=00:00:36.76 bitrate= 228.2kbits/s dup=0 drop=15 speed=0.979x elapsed=0:00:37.55    frame=  918 fps= 24 q=28.0 size=    1024KiB time=00:00:37.24 bitrate= 225.3kbits/s dup=0 drop=15 speed=0.979x elapsed=0:00:38.05    frame=  930 fps= 24 q=28.0 size=    1024KiB time=00:00:37.72 bitrate= 222.4kbits/s dup=0 drop=15 speed=0.978x elapsed=0:00:38.55    frame=  943 fps= 24 q=28.0 size=    1024KiB time=00:00:38.24 bitrate= 219.4kbits/s dup=0 drop=15 speed=0.979x elapsed=0:00:39.05    frame=  955 fps= 24 q=28.0 size=    1024KiB time=00:00:38.72 bitrate= 216.6kbits/s dup=0 drop=15 speed=0.979x elapsed=0:00:39.55    frame=  968 fps= 24 q=28.0 size=    1024KiB time=00:00:39.28 bitrate= 213.6kbits/s dup=0 drop=15 speed=0.981x elapsed=0:00:40.05    frame=  980 fps= 24 q=28.0 size=    1024KiB time=00:00:39.76 bitrate= 211.0kbits/s dup=0 drop=15 speed=0.98x elapsed=0:00:40.55    frame=  993 fps= 24 q=28.0 size=    1024KiB time=00:00:40.24 bitrate= 208.5kbits/s dup=0 drop=15 speed=0.98x elapsed=0:00:41.06    frame= 1006 fps= 24 q=28.0 size=    1024KiB time=00:00:40.76 bitrate= 205.8kbits/s dup=0 drop=15 speed=0.981x elapsed=0:00:41.56    frame= 1018 fps= 24 q=28.0 size=    1024KiB time=00:00:41.24 bitrate= 203.4kbits/s dup=0 drop=15 speed=0.98x elapsed=0:00:42.06    frame= 1031 fps= 24 q=28.0 size=    1024KiB time=00:00:41.76 bitrate= 200.9kbits/s dup=0 drop=15 speed=0.981x elapsed=0:00:42.56    frame= 1043 fps= 24 q=28.0 size=    1024KiB time=00:00:42.24 bitrate= 198.6kbits/s dup=0 drop=15 speed=0.981x elapsed=0:00:43.06    frame= 1055 fps= 24 q=28.0 size=    1024KiB time=00:00:42.76 bitrate= 196.2kbits/s dup=0 drop=15 speed=0.982x elapsed=0:00:43.56    frame= 1068 fps= 24 q=28.0 size=    1024KiB time=00:00:43.24 bitrate= 194.0kbits/s dup=0 drop=15 speed=0.981x elapsed=0:00:44.06    frame= 1081 fps= 24 q=28.0 size=    1024KiB time=00:00:43.76 bitrate= 191.7kbits/s dup=0 drop=15 speed=0.982x elapsed=0:00:44.56    frame= 1093 fps= 24 q=28.0 size=    1024KiB time=00:00:44.24 bitrate= 189.6kbits/s dup=0 drop=15 speed=0.982x elapsed=0:00:45.06    frame= 1106 fps= 24 q=28.0 size=    1024KiB time=00:00:44.76 bitrate= 187.4kbits/s dup=0 drop=15 speed=0.982x elapsed=0:00:45.56    frame= 1118 fps= 24 q=28.0 size=    1024KiB time=00:00:45.24 bitrate= 185.4kbits/s dup=0 drop=15 speed=0.982x elapsed=0:00:46.07    frame= 1131 fps= 24 q=28.0 size=    1280KiB time=00:00:45.80 bitrate= 228.9kbits/s dup=0 drop=15 speed=0.983x elapsed=0:00:46.57    frame= 1143 fps= 24 q=28.0 size=    1280KiB time=00:00:46.28 bitrate= 226.6kbits/s dup=0 drop=15 speed=0.983x elapsed=0:00:47.07    frame= 1156 fps= 24 q=28.0 size=    1280KiB time=00:00:46.76 bitrate= 224.2kbits/s dup=0 drop=15 speed=0.983x elapsed=0:00:47.57    frame= 1168 fps= 24 q=28.0 size=    1280KiB time=00:00:47.28 bitrate= 221.8kbits/s dup=0 drop=15 speed=0.984x elapsed=0:00:48.07    frame= 1181 fps= 24 q=28.0 size=    1280KiB time=00:00:47.76 bitrate= 219.6kbits/s dup=0 drop=15 speed=0.983x elapsed=0:00:48.57    frame= 1193 fps= 24 q=28.0 size=    1280KiB time=00:00:48.24 bitrate= 217.4kbits/s dup=0 drop=15 speed=0.983x elapsed=0:00:49.07    frame= 1206 fps= 24 q=28.0 size=    1280KiB time=00:00:48.76 bitrate= 215.0kbits/s dup=0 drop=15 speed=0.984x elapsed=0:00:49.57    frame= 1218 fps= 24 q=28.0 size=    1280KiB time=00:00:49.28 bitrate= 212.8kbits/s dup=0 drop=15 speed=0.984x elapsed=0:00:50.07    frame= 1231 fps= 24 q=28.0 size=    1280KiB time=00:00:49.80 bitrate= 210.6kbits/s dup=0 drop=15 speed=0.985x elapsed=0:00:50.57    frame= 1243 fps= 24 q=28.0 size=    1280KiB time=00:00:50.24 bitrate= 208.7kbits/s dup=0 drop=15 speed=0.984x elapsed=0:00:51.07    frame= 1256 fps= 24 q=28.0 size=    1280KiB time=00:00:50.76 bitrate= 206.6kbits/s dup=0 drop=15 speed=0.984x elapsed=0:00:51.57    frame= 1268 fps= 24 q=28.0 size=    1280KiB time=00:00:51.28 bitrate= 204.5kbits/s dup=0 drop=15 speed=0.985x elapsed=0:00:52.07    frame= 1281 fps= 24 q=28.0 size=    1280KiB time=00:00:51.76 bitrate= 202.6kbits/s dup=0 drop=15 speed=0.984x elapsed=0:00:52.57    frame= 1293 fps= 24 q=28.0 size=    1280KiB time=00:00:52.24 bitrate= 200.7kbits/s dup=0 drop=15 speed=0.984x elapsed=0:00:53.07    frame= 1306 fps= 24 q=28.0 size=    1280KiB time=00:00:52.76 bitrate= 198.7kbits/s dup=0 drop=15 speed=0.985x elapsed=0:00:53.57    frame= 1318 fps= 24 q=28.0 size=    1280KiB time=00:00:53.24 bitrate= 197.0kbits/s dup=0 drop=15 speed=0.985x elapsed=0:00:54.07    frame= 1331 fps= 24 q=28.0 size=    1280KiB time=00:00:53.76 bitrate= 195.0kbits/s dup=0 drop=15 speed=0.985x elapsed=0:00:54.57    frame= 1343 fps= 24 q=28.0 size=    1280KiB time=00:00:54.28 bitrate= 193.2kbits/s dup=0 drop=15 speed=0.986x elapsed=0:00:55.07    frame= 1356 fps= 24 q=28.0 size=    1280KiB time=00:00:54.80 bitrate= 191.3kbits/s dup=0 drop=15 speed=0.986x elapsed=0:00:55.57    frame= 1368 fps= 24 q=28.0 size=    1280KiB time=00:00:55.28 bitrate= 189.7kbits/s dup=0 drop=15 speed=0.986x elapsed=0:00:56.07    frame= 1381 fps= 24 q=28.0 size=    1536KiB time=00:00:55.80 bitrate= 225.5kbits/s dup=0 drop=15 speed=0.986x elapsed=0:00:56.57    frame= 1394 fps= 24 q=28.0 size=    1536KiB time=00:00:56.28 bitrate= 223.6kbits/s dup=0 drop=15 speed=0.986x elapsed=0:00:57.07    frame= 1406 fps= 24 q=28.0 size=    1536KiB time=00:00:56.80 bitrate= 221.5kbits/s dup=0 drop=15 speed=0.986x elapsed=0:00:57.57    frame= 1418 fps= 24 q=28.0 size=    1536KiB time=00:00:57.24 bitrate= 219.8kbits/s dup=0 drop=15 speed=0.986x elapsed=0:00:58.08    frame= 1431 fps= 24 q=28.0 size=    1536KiB time=00:00:57.76 bitrate= 217.8kbits/s dup=0 drop=15 speed=0.986x elapsed=0:00:58.58    frame= 1443 fps= 24 q=28.0 size=    1536KiB time=00:00:58.28 bitrate= 215.9kbits/s dup=0 drop=15 speed=0.986x elapsed=0:00:59.08    frame= 1456 fps= 24 q=28.0 size=    1536KiB time=00:00:58.76 bitrate= 214.1kbits/s dup=0 drop=15 speed=0.986x elapsed=0:00:59.58    frame= 1468 fps= 24 q=28.0 size=    1536KiB time=00:00:59.24 bitrate= 212.4kbits/s dup=0 drop=15 speed=0.986x elapsed=0:01:00.08    frame= 1481 fps= 24 q=28.0 size=    1536KiB time=00:00:59.80 bitrate= 210.4kbits/s dup=0 drop=15 speed=0.987x elapsed=0:01:00.58    frame= 1493 fps= 24 q=28.0 size=    1536KiB time=00:01:00.28 bitrate= 208.7kbits/s dup=0 drop=15 speed=0.987x elapsed=0:01:01.08    frame= 1506 fps= 24 q=28.0 size=    1536KiB time=00:01:00.76 bitrate= 207.1kbits/s dup=0 drop=15 speed=0.987x elapsed=0:01:01.58    frame= 1518 fps= 24 q=28.0 size=    1536KiB time=00:01:01.24 bitrate= 205.5kbits/s dup=0 drop=15 speed=0.986x elapsed=0:01:02.08    frame= 1531 fps= 24 q=28.0 size=    1536KiB time=00:01:01.76 bitrate= 203.7kbits/s dup=0 drop=15 speed=0.987x elapsed=0:01:02.58    frame= 1543 fps= 24 q=28.0 size=    1536KiB time=00:01:02.24 bitrate= 202.2kbits/s dup=0 drop=15 speed=0.987x elapsed=0:01:03.08    frame= 1556 fps= 24 q=28.0 size=    1536KiB time=00:01:02.76 bitrate= 200.5kbits/s dup=0 drop=15 speed=0.987x elapsed=0:01:03.58    frame= 1568 fps= 24 q=28.0 size=    1536KiB time=00:01:03.24 bitrate= 199.0kbits/s dup=0 drop=15 speed=0.987x elapsed=0:01:04.08    frame= 1581 fps= 24 q=28.0 size=    1536KiB time=00:01:03.80 bitrate= 197.2kbits/s dup=0 drop=15 speed=0.988x elapsed=0:01:04.58    frame= 1594 fps= 24 q=28.0 size=    1536KiB time=00:01:04.28 bitrate= 195.8kbits/s dup=0 drop=15 speed=0.988x elapsed=0:01:05.09    frame= 1606 fps= 24 q=28.0 size=    1536KiB time=00:01:04.80 bitrate= 194.2kbits/s dup=0 drop=15 speed=0.988x elapsed=0:01:05.59    frame= 1619 fps= 24 q=28.0 size=    1536KiB time=00:01:05.32 bitrate= 192.6kbits/s dup=0 drop=15 speed=0.988x elapsed=0:01:06.09    frame= 1631 fps= 24 q=28.0 size=    1792KiB time=00:01:05.80 bitrate= 223.1kbits/s dup=0 drop=15 speed=0.988x elapsed=0:01:06.59    frame= 1644 fps= 25 q=28.0 size=    1792KiB time=00:01:06.28 bitrate= 221.5kbits/s dup=0 drop=15 speed=0.988x elapsed=0:01:07.09    frame= 1656 fps= 24 q=28.0 size=    1792KiB time=00:01:06.80 bitrate= 219.8kbits/s dup=0 drop=15 speed=0.988x elapsed=0:01:07.59    frame= 1669 fps= 25 q=28.0 size=    1792KiB time=00:01:07.32 bitrate= 218.1kbits/s dup=0 drop=15 speed=0.989x elapsed=0:01:08.09    frame= 1681 fps= 25 q=28.0 size=    1792KiB time=00:01:07.80 bitrate= 216.5kbits/s dup=0 drop=15 speed=0.988x elapsed=0:01:08.59    frame= 1694 fps= 25 q=28.0 size=    1792KiB time=00:01:08.32 bitrate= 214.9kbits/s dup=0 drop=15 speed=0.989x elapsed=0:01:09.09    frame= 1706 fps= 25 q=28.0 size=    1792KiB time=00:01:08.76 bitrate= 213.5kbits/s dup=0 drop=15 speed=0.988x elapsed=0:01:09.59    frame= 1719 fps= 25 q=28.0 size=    1792KiB time=00:01:09.28 bitrate= 211.9kbits/s dup=0 drop=15 speed=0.988x elapsed=0:01:10.09    frame= 1731 fps= 25 q=28.0 size=    1792KiB time=00:01:09.80 bitrate= 210.3kbits/s dup=0 drop=15 speed=0.989x elapsed=0:01:10.59    frame= 1744 fps= 25 q=28.0 size=    1792KiB time=00:01:10.28 bitrate= 208.9kbits/s dup=0 drop=15 speed=0.989x elapsed=0:01:11.09    frame= 1756 fps= 25 q=28.0 size=    2048KiB time=00:01:10.80 bitrate= 237.0kbits/s dup=0 drop=15 speed=0.989x elapsed=0:01:11.59    frame= 1769 fps= 25 q=28.0 size=    2048KiB time=00:01:11.28 bitrate= 235.4kbits/s dup=0 drop=15 speed=0.989x elapsed=0:01:12.09    frame= 1781 fps= 25 q=28.0 size=    2048KiB time=00:01:11.76 bitrate= 233.8kbits/s dup=0 drop=15 speed=0.988x elapsed=0:01:12.59    frame= 1794 fps= 25 q=28.0 size=    2048KiB time=00:01:12.28 bitrate= 232.1kbits/s dup=0 drop=15 speed=0.989x elapsed=0:01:13.09    frame= 1806 fps= 25 q=28.0 size=    2048KiB time=00:01:12.80 bitrate= 230.5kbits/s dup=0 drop=15 speed=0.989x elapsed=0:01:13.59    frame= 1819 fps= 25 q=28.0 size=    2048KiB time=00:01:13.28 bitrate= 228.9kbits/s dup=0 drop=15 speed=0.989x elapsed=0:01:14.09    frame= 1831 fps= 25 q=28.0 size=    2048KiB time=00:01:13.76 bitrate= 227.5kbits/s dup=0 drop=15 speed=0.989x elapsed=0:01:14.59    frame= 1844 fps= 25 q=28.0 size=    2048KiB time=00:01:14.28 bitrate= 225.9kbits/s dup=0 drop=15 speed=0.989x elapsed=0:01:15.09    frame= 1856 fps= 25 q=28.0 size=    2048KiB time=00:01:14.80 bitrate= 224.3kbits/s dup=0 drop=15 speed=0.989x elapsed=0:01:15.59    frame= 1869 fps= 25 q=28.0 size=    2048KiB time=00:01:15.28 bitrate= 222.9kbits/s dup=0 drop=15 speed=0.989x elapsed=0:01:16.09    frame= 1882 fps= 25 q=28.0 size=    2048KiB time=00:01:15.80 bitrate= 221.3kbits/s dup=0 drop=15 speed=0.99x elapsed=0:01:16.59    frame= 1894 fps= 25 q=28.0 size=    2048KiB time=00:01:16.32 bitrate= 219.8kbits/s dup=0 drop=15 speed=0.99x elapsed=0:01:17.09    frame= 1907 fps= 25 q=28.0 size=    2048KiB time=00:01:16.84 bitrate= 218.3kbits/s dup=0 drop=15 speed=0.99x elapsed=0:01:17.60    frame= 1919 fps= 25 q=28.0 size=    2048KiB time=00:01:17.28 bitrate= 217.1kbits/s dup=0 drop=15 speed=0.989x elapsed=0:01:18.10    frame= 1931 fps= 25 q=28.0 size=    2048KiB time=00:01:17.76 bitrate= 215.8kbits/s dup=0 drop=15 speed=0.989x elapsed=0:01:18.60    frame= 1944 fps= 25 q=28.0 size=    2048KiB time=00:01:18.28 bitrate= 214.3kbits/s dup=0 drop=15 speed=0.99x elapsed=0:01:19.10    frame= 1956 fps= 25 q=28.0 size=    2048KiB time=00:01:18.76 bitrate= 213.0kbits/s dup=0 drop=15 speed=0.989x elapsed=0:01:19.60    frame= 1969 fps= 25 q=28.0 size=    2048KiB time=00:01:19.28 bitrate= 211.6kbits/s dup=0 drop=15 speed=0.99x elapsed=0:01:20.10    frame= 1981 fps= 25 q=28.0 size=    2048KiB time=00:01:19.80 bitrate= 210.2kbits/s dup=0 drop=15 speed=0.99x elapsed=0:01:20.60    frame= 1994 fps= 25 q=28.0 size=    2048KiB time=00:01:20.28 bitrate= 209.0kbits/s dup=0 drop=15 speed=0.99x elapsed=0:01:21.11    frame= 2007 fps= 25 q=28.0 size=    2304KiB time=00:01:20.84 bitrate= 233.5kbits/s dup=0 drop=15 speed=0.991x elapsed=0:01:21.61    frame= 2019 fps= 25 q=28.0 size=    2304KiB time=00:01:21.28 bitrate= 232.2kbits/s dup=0 drop=15 speed=0.99x elapsed=0:01:22.11    frame= 2032 fps= 25 q=28.0 size=    2304KiB time=00:01:21.80 bitrate= 230.7kbits/s dup=0 drop=15 speed=0.99x elapsed=0:01:22.61    frame= 2044 fps= 25 q=28.0 size=    2304KiB time=00:01:22.28 bitrate= 229.4kbits/s dup=0 drop=15 speed=0.99x elapsed=0:01:23.11    frame= 2057 fps= 25 q=28.0 size=    2304KiB time=00:01:22.80 bitrate= 228.0kbits/s dup=0 drop=15 speed=0.99x elapsed=0:01:23.61    frame= 2069 fps= 25 q=28.0 size=    2304KiB time=00:01:23.28 bitrate= 226.6kbits/s dup=0 drop=15 speed=0.99x elapsed=0:01:24.11    frame= 2082 fps= 25 q=28.0 size=    2304KiB time=00:01:23.80 bitrate= 225.2kbits/s dup=0 drop=15 speed=0.99x elapsed=0:01:24.61    frame= 2094 fps= 25 q=28.0 size=    2304KiB time=00:01:24.28 bitrate= 223.9kbits/s dup=0 drop=15 speed=0.99x elapsed=0:01:25.11    frame= 2107 fps= 25 q=28.0 size=    2304KiB time=00:01:24.84 bitrate= 222.5kbits/s dup=0 drop=15 speed=0.991x elapsed=0:01:25.61    frame= 2119 fps= 25 q=28.0 size=    2304KiB time=00:01:25.28 bitrate= 221.3kbits/s dup=0 drop=15 speed=0.99x elapsed=0:01:26.11    frame= 2132 fps= 25 q=28.0 size=    2304KiB time=00:01:25.84 bitrate= 219.9kbits/s dup=0 drop=15 speed=0.991x elapsed=0:01:26.61    frame= 2145 fps= 25 q=28.0 size=    2304KiB time=00:01:26.32 bitrate= 218.7kbits/s dup=0 drop=15 speed=0.991x elapsed=0:01:27.12    frame= 2157 fps= 25 q=28.0 size=    2304KiB time=00:01:26.84 bitrate= 217.3kbits/s dup=0 drop=15 speed=0.991x elapsed=0:01:27.62    frame= 2169 fps= 25 q=28.0 size=    2304KiB time=00:01:27.32 bitrate= 216.2kbits/s dup=0 drop=15 speed=0.991x elapsed=0:01:28.12    frame= 2182 fps= 25 q=28.0 size=    2304KiB time=00:01:27.80 bitrate= 215.0kbits/s dup=0 drop=15 speed=0.991x elapsed=0:01:28.62    frame= 2194 fps= 25 q=28.0 size=    2304KiB time=00:01:28.32 bitrate= 213.7kbits/s dup=0 drop=15 speed=0.991x elapsed=0:01:29.12    frame= 2207 fps= 25 q=28.0 size=    2304KiB time=00:01:28.84 bitrate= 212.5kbits/s dup=0 drop=15 speed=0.991x elapsed=0:01:29.62    frame= 2220 fps= 25 q=28.0 size=    2304KiB time=00:01:29.32 bitrate= 211.3kbits/s dup=0 drop=15 speed=0.991x elapsed=0:01:30.12    frame= 2232 fps= 25 q=28.0 size=    2304KiB time=00:01:29.80 bitrate= 210.2kbits/s dup=0 drop=15 speed=0.991x elapsed=0:01:30.62    frame= 2244 fps= 25 q=28.0 size=    2304KiB time=00:01:30.28 bitrate= 209.1kbits/s dup=0 drop=15 speed=0.991x elapsed=0:01:31.12    frame= 2257 fps= 25 q=28.0 size=    2560KiB time=00:01:30.84 bitrate= 230.9kbits/s dup=0 drop=15 speed=0.991x elapsed=0:01:31.62    frame= 2269 fps= 25 q=28.0 size=    2560KiB time=00:01:31.32 bitrate= 229.6kbits/s dup=0 drop=15 speed=0.991x elapsed=0:01:32.12    frame= 2282 fps= 25 q=28.0 size=    2560KiB time=00:01:31.84 bitrate= 228.3kbits/s dup=0 drop=15 speed=0.991x elapsed=0:01:32.62    frame= 2294 fps= 25 q=28.0 size=    2560KiB time=00:01:32.32 bitrate= 227.2kbits/s dup=0 drop=15 speed=0.991x elapsed=0:01:33.12    frame= 2307 fps= 25 q=28.0 size=    2560KiB time=00:01:32.84 bitrate= 225.9kbits/s dup=0 drop=15 speed=0.992x elapsed=0:01:33.62    frame= 2320 fps= 25 q=28.0 size=    2560KiB time=00:01:33.32 bitrate= 224.7kbits/s dup=0 drop=15 speed=0.991x elapsed=0:01:34.12    frame= 2332 fps= 25 q=28.0 size=    2560KiB time=00:01:33.84 bitrate= 223.5kbits/s dup=0 drop=15 speed=0.992x elapsed=0:01:34.62    frame= 2345 fps= 25 q=28.0 size=    2560KiB time=00:01:34.36 bitrate= 222.3kbits/s dup=0 drop=15 speed=0.992x elapsed=0:01:35.13    frame= 2357 fps= 25 q=28.0 size=    2560KiB time=00:01:34.84 bitrate= 221.1kbits/s dup=0 drop=15 speed=0.992x elapsed=0:01:35.63    frame= 2370 fps= 25 q=28.0 size=    2560KiB time=00:01:35.36 bitrate= 219.9kbits/s dup=0 drop=15 speed=0.992x elapsed=0:01:36.13    frame= 2382 fps= 25 q=28.0 size=    2816KiB time=00:01:35.84 bitrate= 240.7kbits/s dup=0 drop=15 speed=0.992x elapsed=0:01:36.63    frame= 2395 fps= 25 q=28.0 size=    2816KiB time=00:01:36.32 bitrate= 239.5kbits/s dup=0 drop=15 speed=0.992x elapsed=0:01:37.13    frame= 2407 fps= 25 q=28.0 size=    2816KiB time=00:01:36.84 bitrate= 238.2kbits/s dup=0 drop=15 speed=0.992x elapsed=0:01:37.63    frame= 2420 fps= 25 q=28.0 size=    2816KiB time=00:01:37.32 bitrate= 237.0kbits/s dup=0 drop=15 speed=0.992x elapsed=0:01:38.13    frame= 2432 fps= 25 q=28.0 size=    2816KiB time=00:01:37.84 bitrate= 235.8kbits/s dup=0 drop=15 speed=0.992x elapsed=0:01:38.63    frame= 2445 fps= 25 q=28.0 size=    2816KiB time=00:01:38.36 bitrate= 234.5kbits/s dup=0 drop=15 speed=0.992x elapsed=0:01:39.13    frame= 2457 fps= 25 q=28.0 size=    2816KiB time=00:01:38.80 bitrate= 233.5kbits/s dup=0 drop=15 speed=0.992x elapsed=0:01:39.63    frame= 2470 fps= 25 q=28.0 size=    2816KiB time=00:01:39.32 bitrate= 232.3kbits/s dup=0 drop=15 speed=0.992x elapsed=0:01:40.13    frame= 2482 fps= 25 q=28.0 size=    2816KiB time=00:01:39.84 bitrate= 231.1kbits/s dup=0 drop=15 speed=0.992x elapsed=0:01:40.63    frame= 2495 fps= 25 q=28.0 size=    2816KiB time=00:01:40.32 bitrate= 230.0kbits/s dup=0 drop=15 speed=0.992x elapsed=0:01:41.13    frame= 2507 fps= 25 q=28.0 size=    2816KiB time=00:01:40.80 bitrate= 228.9kbits/s dup=0 drop=15 speed=0.992x elapsed=0:01:41.63    frame= 2520 fps= 25 q=28.0 size=    2816KiB time=00:01:41.36 bitrate= 227.6kbits/s dup=0 drop=15 speed=0.992x elapsed=0:01:42.13    frame= 2532 fps= 25 q=28.0 size=    2816KiB time=00:01:41.80 bitrate= 226.6kbits/s dup=0 drop=15 speed=0.992x elapsed=0:01:42.63    frame= 2545 fps= 25 q=28.0 size=    2816KiB time=00:01:42.32 bitrate= 225.5kbits/s dup=0 drop=15 speed=0.992x elapsed=0:01:43.13    frame= 2557 fps= 25 q=28.0 size=    2816KiB time=00:01:42.80 bitrate= 224.4kbits/s dup=0 drop=15 speed=0.992x elapsed=0:01:43.63    frame= 2570 fps= 25 q=28.0 size=    2816KiB time=00:01:43.36 bitrate= 223.2kbits/s dup=0 drop=15 speed=0.993x elapsed=0:01:44.13    frame= 2582 fps= 25 q=28.0 size=    2816KiB time=00:01:43.80 bitrate= 222.2kbits/s dup=0 drop=15 speed=0.992x elapsed=0:01:44.63    frame= 2595 fps= 25 q=28.0 size=    2816KiB time=00:01:44.36 bitrate= 221.0kbits/s dup=0 drop=15 speed=0.993x elapsed=0:01:45.13    frame= 2607 fps= 25 q=28.0 size=    2816KiB time=00:01:44.84 bitrate= 220.0kbits/s dup=0 drop=15 speed=0.992x elapsed=0:01:45.63    frame= 2620 fps= 25 q=28.0 size=    2816KiB time=00:01:45.32 bitrate= 219.0kbits/s dup=0 drop=15 speed=0.992x elapsed=0:01:46.13    frame= 2632 fps= 25 q=28.0 size=    3072KiB time=00:01:45.84 bitrate= 237.8kbits/s dup=0 drop=15 speed=0.993x elapsed=0:01:46.63    frame= 2645 fps= 25 q=28.0 size=    3072KiB time=00:01:46.36 bitrate= 236.6kbits/s dup=0 drop=15 speed=0.993x elapsed=0:01:47.14    frame= 2657 fps= 25 q=28.0 size=    3072KiB time=00:01:46.88 bitrate= 235.5kbits/s dup=0 drop=15 speed=0.993x elapsed=0:01:47.64    frame= 2670 fps= 25 q=28.0 size=    3072KiB time=00:01:47.32 bitrate= 234.5kbits/s dup=0 drop=15 speed=0.992x elapsed=0:01:48.14    frame= 2683 fps= 25 q=28.0 size=    3072KiB time=00:01:47.88 bitrate= 233.3kbits/s dup=0 drop=15 speed=0.993x elapsed=0:01:48.64    frame= 2695 fps= 25 q=28.0 size=    3072KiB time=00:01:48.32 bitrate= 232.3kbits/s dup=0 drop=15 speed=0.992x elapsed=0:01:49.14    frame= 2707 fps= 25 q=28.0 size=    3072KiB time=00:01:48.80 bitrate= 231.3kbits/s dup=0 drop=15 speed=0.992x elapsed=0:01:49.64    frame= 2720 fps= 25 q=28.0 size=    3072KiB time=00:01:49.36 bitrate= 230.1kbits/s dup=0 drop=15 speed=0.993x elapsed=0:01:50.15    frame= 2733 fps= 25 q=28.0 size=    3072KiB time=00:01:49.88 bitrate= 229.0kbits/s dup=0 drop=15 speed=0.993x elapsed=0:01:50.65    frame= 2745 fps= 25 q=28.0 size=    3072KiB time=00:01:50.36 bitrate= 228.0kbits/s dup=0 drop=15 speed=0.993x elapsed=0:01:51.15    [out#0/matroska @ 0x561298d42500] Error writing trailer: Immediate exit requested
[out#0/matroska @ 0x561298d42500] Error closing file: Immediate exit requested
[out#0/matroska @ 0x561298d42500] video:3772KiB audio:0KiB subtitle:0KiB other streams:0KiB global headers:0KiB muxing overhead: unknown
frame= 2778 fps= 25 q=-1.0 Lsize=    3072KiB time=00:01:51.64 bitrate= 225.4kbits/s dup=0 drop=15 speed=0.999x elapsed=0:01:51.72    
[libx264 @ 0x561298d43f00] frame I:12    Avg QP:11.72  size:132191
[libx264 @ 0x561298d43f00] frame P:703   Avg QP:17.59  size:  2013
[libx264 @ 0x561298d43f00] frame B:2063  Avg QP:24.73  size:   417
[libx264 @ 0x561298d43f00] consecutive B-frames:  0.8%  0.4%  0.4% 98.3%
[libx264 @ 0x561298d43f00] mb I  I16..4: 87.8%  1.8% 10.4%
[libx264 @ 0x561298d43f00] mb P  I16..4:  0.2%  0.1%  0.0%  P16..4:  0.3%  0.2%  0.1%  0.0%  0.0%    skip:99.1%
[libx264 @ 0x561298d43f00] mb B  I16..4:  0.0%  0.0%  0.0%  B16..8:  0.2%  0.1%  0.0%  direct: 0.1%  skip:99.6%  L0:45.6% L1:48.5% BI: 5.9%
[libx264 @ 0x561298d43f00] 8x8 transform intra:4.0% inter:2.9%
[libx264 @ 0x561298d43f00] coded y,uvDC,uvAC intra: 15.1% 22.2% 18.4% inter: 0.1% 0.1% 0.1%
[libx264 @ 0x561298d43f00] i16 v,h,dc,p: 70% 28%  2%  0%
[libx264 @ 0x561298d43f00] i8 v,h,dc,ddl,ddr,vr,hd,vl,hu: 14% 23% 55%  1%  1%  2%  2%  1%  1%
[libx264 @ 0x561298d43f00] i4 v,h,dc,ddl,ddr,vr,hd,vl,hu: 34% 26% 20%  3%  3%  5%  3%  4%  2%
[libx264 @ 0x561298d43f00] i8c dc,h,v,p: 60% 29% 10%  1%
[libx264 @ 0x561298d43f00] Weighted P-Frames: Y:0.0% UV:0.0%
[libx264 @ 0x561298d43f00] kb/s:276.41
Exiting normally, received signal 2.
